<?xml version="1.0" standalone="no"?>
<svg xmlns:xlink="http://www.w3.org/1999/xlink" id="wave" style="transform:rotate(180deg); transition: 0.3s" viewBox="0 0 1440 100" version="1.1" xmlns="http://www.w3.org/2000/svg"><defs><linearGradient id="sw-gradient-0" x1="0" x2="0" y1="1" y2="0"><stop stop-color="rgba(255, 255, 255, 1)" offset="0%"/><stop stop-color="rgba(255, 255, 255, 1)" offset="100%"/></linearGradient></defs><path style="transform:translate(0, 0px); opacity:1" fill="url(#sw-gradient-0)" d="M0,90L48,75C96,60,192,30,288,28.3C384,27,480,53,576,68.3C672,83,768,87,864,86.7C960,87,1056,83,1152,71.7C1248,60,1344,40,1440,26.7C1536,13,1632,7,1728,8.3C1824,10,1920,20,2016,28.3C2112,37,2208,43,2304,50C2400,57,2496,63,2592,55C2688,47,2784,23,2880,25C2976,27,3072,53,3168,58.3C3264,63,3360,47,3456,36.7C3552,27,3648,23,3744,18.3C3840,13,3936,7,4032,5C4128,3,4224,7,4320,10C4416,13,4512,17,4608,30C4704,43,4800,67,4896,78.3C4992,90,5088,90,5184,83.3C5280,77,5376,63,5472,53.3C5568,43,5664,37,5760,40C5856,43,5952,57,6048,56.7C6144,57,6240,43,6336,45C6432,47,6528,63,6624,58.3C6720,53,6816,27,6864,13.3L6912,0L6912,100L6864,100C6816,100,6720,100,6624,100C6528,100,6432,100,6336,100C6240,100,6144,100,6048,100C5952,100,5856,100,5760,100C5664,100,5568,100,5472,100C5376,100,5280,100,5184,100C5088,100,4992,100,4896,100C4800,100,4704,100,4608,100C4512,100,4416,100,4320,100C4224,100,4128,100,4032,100C3936,100,3840,100,3744,100C3648,100,3552,100,3456,100C3360,100,3264,100,3168,100C3072,100,2976,100,2880,100C2784,100,2688,100,2592,100C2496,100,2400,100,2304,100C2208,100,2112,100,2016,100C1920,100,1824,100,1728,100C1632,100,1536,100,1440,100C1344,100,1248,100,1152,100C1056,100,960,100,864,100C768,100,672,100,576,100C480,100,384,100,288,100C192,100,96,100,48,100L0,100Z"/></svg>